HIERARCHY
ROOT Hips
{
	OFFSET 0.000000 0.000000 0.000000
	CHANNELS 6 Xposition Yposition Zposition Zrotation Yrotation Xrotation 
	JOINT LHipJoint
	{
		OFFSET 0.000000 0.000000 0.000000
		CHANNELS 3 Zrotation Yrotation Xrotation
		JOINT LeftUpLeg
		{
			OFFSET 1.363060 -1.794630 0.839290
			CHANNELS 3 Zrotation Yrotation Xrotation
			JOINT LeftLeg
			{
				OFFSET 2.448110 -6.726130 0.000000
				CHANNELS 3 Zrotation Yrotation Xrotation
				JOINT LeftFoot
				{
					OFFSET 2.562200 -7.039590 0.000000
					CHANNELS 3 Zrotation Yrotation Xrotation
					JOINT LeftToeBase
					{
						OFFSET 0.157640 -0.433110 2.322550
						CHANNELS 3 Zrotation Yrotation Xrotation
						End Site
						{
							OFFSET 0.000000 0.000000 0.000000
						}
					}
				}
			}
		}
	}
	JOINT RHipJoint
	{
		OFFSET 0.000000 0.000000 0.000000
		CHANNELS 3 Zrotation Yrotation Xrotation
		JOINT RightUpLeg
		{
			OFFSET -1.305520 -1.794630 0.839290
			CHANNELS 3 Zrotation Yrotation Xrotation
			JOINT RightLeg
			{
				OFFSET -2.542530 -6.985550 0.000000
				CHANNELS 3 Zrotation Yrotation Xrotation
				JOINT RightFoot
				{
					OFFSET -2.568260 -7.056230 0.000000
					CHANNELS 3 Zrotation Yrotation Xrotation
					JOINT RightToeBase
					{
						OFFSET -0.164730 -0.452590 2.363150
						CHANNELS 3 Zrotation Yrotation Xrotation
						End Site
						{
							OFFSET 0.000000 0.000000 0.000000
						}
					}
				}
			}
		}
	}
}
MOTION
Frames: 11
Frame Time: 0.008333
-0.571643 17.960042 -1.117173 -5.901088 79.030205 11.662559 -12.395802 4.273116 0.191724 -4.579990 17.589637 -10.377116 -1.450442 0.837809 17.399826 0.419998 -2.465909 19.457595 -1.189000 -0.000000 -68.592300 8.812942 -2.314798 1.243540 18.934989 -5.548533 -44.010529 2.365652 -3.178518 36.862909 1.104590 7.673301 7.075417 1.600600 0.000000 -65.888800
-0.314800 18.006470 -1.055014 -4.802477 78.811825 12.966347 -12.461886 4.398910 0.153558 -4.215458 18.068055 -10.070799 -1.381454 0.888661 17.757228 0.512502 -2.690589 21.287979 -1.420600 -0.000000 -67.446099 8.638271 -2.464198 1.647097 19.509774 -4.741274 -43.229218 2.831433 -2.789555 32.171258 1.258667 8.015562 7.924689 1.738800 -0.000000 -66.669100
-0.058711 18.038937 -0.991159 -3.317805 78.625588 14.612241 -12.487200 4.513272 0.135509 -3.963423 18.267210 -9.702797 -1.293010 0.933313 18.361065 0.615549 -2.375848 22.560442 -1.384100 0.000000 -66.001900 8.499503 -2.586497 2.009746 20.000664 -4.126848 -42.467464 3.262153 -2.385777 27.688787 1.402835 8.325164 9.040272 1.910500 -0.000001 -67.519299
0.195981 18.057580 -0.926154 -1.497253 78.467182 16.522230 -12.472040 4.619678 0.138883 -3.811450 18.206312 -9.252382 -1.183599 0.974976 19.211421 0.723592 -1.557983 23.299885 -1.072800 0.000000 -64.355200 8.403431 -2.682866 2.305188 20.447912 -3.775360 -41.735578 3.644704 -1.986722 23.535833 1.535475 8.635473 10.382068 2.125900 -0.000001 -68.347400
0.448685 18.062660 -0.860533 0.583437 78.327229 18.599167 -12.418532 4.719658 0.162013 -3.742547 17.920670 -8.710978 -1.054322 1.016754 20.306282 0.836141 -0.317928 23.560529 -0.526500 0.000000 -62.651600 8.351525 -2.756973 2.512717 20.892714 -3.724515 -41.034301 3.970558 -1.614092 19.821615 1.653476 8.968591 11.864459 2.387800 0.000000 -69.004300
0.698897 18.054392 -0.794681 2.826391 78.193888 20.734428 -12.331700 4.812597 0.198243 -3.734518 17.464805 -8.086638 -0.909674 1.062022 21.648568 0.954477 1.224903 23.408632 0.179800 0.000000 -60.965600 8.338785 -2.814436 2.625136 21.363549 -3.961548 -40.352491 4.235897 -1.284907 16.619336 1.750830 9.310373 13.367965 2.680400 -0.000000 -69.327901
0.946276 18.032858 -0.728875 5.120557 78.057516 22.819596 -12.219774 4.896172 0.235342 -3.760082 16.910601 -7.405680 -0.757148 1.114734 23.248779 1.078385 2.924721 22.907323 0.952400 0.000001 -59.211000 8.355277 -2.861339 2.652568 21.862562 -4.417860 -39.665638 4.439752 -1.006558 13.950480 1.818608 9.594115 14.756816 2.959400 0.000000 -69.187100
1.190552 17.998060 -0.663031 7.412620 77.913801 24.813061 -12.089337 4.968626 0.263012 -3.807676 16.306491 -6.687086 -0.601578 1.177473 25.081244 1.209826 4.677896 22.175024 1.721600 -0.000000 -57.752399 8.392501 -2.900139 2.614677 22.352810 -4.997232 -38.948967 4.581321 -0.778889 11.810865 1.848470 9.727337 15.868081 3.156999 -0.000000 -68.317000
1.431663 17.949769 -0.597171 9.609792 77.763502 26.644077 -11.951191 5.027823 0.264202 -3.842477 15.739185 -5.981814 -0.452155 1.254708 27.165849 1.341124 6.335596 21.239107 2.402500 0.000000 -56.084700 8.439380 -2.933743 2.545849 22.789115 -5.563178 -38.167123 4.661197 -0.592477 10.146324 1.831520 9.577556 16.566481 3.185800 0.000000 -66.634400
1.669607 17.887916 -0.531001 11.735004 77.611395 28.357347 -11.807583 5.074053 0.234938 -3.867265 15.223477 -5.302195 -0.308274 1.346439 29.441843 1.473706 7.869433 20.248089 2.983899 -0.000000 -54.885800 8.493165 -2.957892 2.471033 23.104289 -6.012219 -37.309276 4.679296 -0.439686 8.934582 1.763629 9.067158 16.689091 2.983600 -0.000000 -63.860300
1.904619 17.812470 -0.464524 13.746891 77.464955 29.936772 -11.665054 5.107571 0.167433 -3.853989 14.811363 -4.690209 -0.173398 1.454122 31.904366 1.599113 9.202276 19.223469 3.434200 -0.000000 -53.732600 8.546659 -2.969984 2.418787 23.261025 -6.236755 -36.370898 4.639204 -0.310333 8.142785 1.639990 8.145043 16.112152 2.523399 -0.000000 -59.838200
